PathFileType	4	(X/Y/Z)	C:/Users/beibeiliu/ov580/test_trc/User3\sequence.34_training_dense_right.trc
DataRate	CameraRate	NumFrames	NumMarkers	Units	OrigDataRate	OrigDataStartFrame	OrigNumFrames
120	120	10	19	mm	120	1	83
Frame#	Time	ThumbCMC			ThumbMCP			ThumbIP			ThumbTip			IndexMCP			IndexPIP			IndexTip			MiddleMCP			MiddlePIP			MiddleTip			RingMCP			RingPIP			RingTip			PinkyMCP			PinkyPIP			PinkyTip			BackHand1			BackHand2			BackHand3	
		X0	Y0	Z0	X1	Y1	Z1	X2	Y2	Z2	X3	Y3	Z3	X4	Y4	Z4	X5	Y5	Z5	X6	Y6	Z6	X7	Y7	Z7	X8	Y8	Z8	X9	Y9	Z9	X10	Y10	Z10	X11	Y11	Z11	X12	Y12	Z12	X13	Y13	Z13	X14	Y14	Z14	X15	Y15	Z15	X16	Y16	Z16	X17	Y17	Z17	X18	Y18	Z18	
0	0	129.429	25.1733	-7.2487	107.235	31.4094	-32.3037	93.9149	30.7923	-59.7295	84.8475	27.0567	-79.8774	150.005	22.3486	-83.9544	139.274	16.6742	-113.426	126.673	10.7858	-132.705	170.652	3.36121	-87.639	160.968	-1.94348	-115.069	150.165	-17.9413	-142.447	179.763	-11.5343	-78.2465	178.15	-19.0314	-104.004	174.189	-32.5318	-128.904	188.008	-27.5938	-60.7556	192.109	-37.5444	-81.8731	193.386	-49.1325	-100.677	186.167	2.08272	-26.6776	186.885	6.73693	4.35296	163.902	27.4574	-14.2868	
1	0.00833333	115.973	8.38182	-7.78314	97.2702	4.17831	-25.1233	80.2962	1.67711	-53.7248	66.543	-3.45124	-69.3802	132.212	16.0584	-80.0207	120.923	12.7042	-108.887	114.953	0.849042	-132.195	156.277	9.77687	-84.6095	151.035	2.61763	-117.492	146.839	-11.7297	-145.217	172.082	-0.7206	-79.903	178.774	-7.6394	-101.312	173.857	-16.9161	-130.504	188.474	-16.352	-60.6375	197.67	-22.1705	-84.3405	198	-31.2812	-106.529	176.928	7.63905	-26.3873	178.549	10.2705	4.15718	148.319	23.9992	-14.5917	
2	0.0166667	111.702	1.95991	-0.360175	93.6891	-4.53069	-24.5602	74.0928	-8.32796	-48.6295	64.5909	-14.9892	-66.5287	126.751	10.5798	-78.8585	114.831	7.81133	-102.993	110.948	-2.32156	-127.565	151.565	6.65865	-88.5174	147.062	0.763534	-115.8	144.977	-13.11	-145.677	171.122	-2.77342	-77.6027	171.811	-5.91288	-100.419	172.586	-15.9603	-128.465	187.471	-14.4289	-60.8111	196.934	-20.4599	-80.3804	200.996	-26.5009	-101.484	173.995	6.44668	-27.1089	178.493	9.35791	1.70078	145.498	19.9721	-12.0422	
3	0.025	110.448	2.68479	-2.77773	90.709	-3.41076	-20.9136	73.79	-8.23888	-49.1049	61.2136	-15.609	-66.1592	124.364	10.7949	-76.51	113.443	5.66796	-106.522	110.706	-3.67885	-128.639	155.071	4.72138	-86.1575	150.334	-1.8386	-116.448	146.7	-14.4886	-143.313	169.356	-2.1886	-78.8945	172.692	-7.19806	-104.303	170.63	-16.6886	-128.88	186.416	-16.0973	-59.1832	195.279	-20.69	-77.9005	202.855	-28.3446	-104.129	171.501	7.91473	-27.2563	176.453	6.9277	4.32696	141.705	19.6791	-15.4663	
4	0.0333333	110.356	4.73431	-3.91275	92.3512	-2.20803	-21.9356	74.0817	-6.3911	-47.4972	62.7658	-14.3874	-67.0067	126.458	10.8965	-80.4023	114.881	7.82379	-103.759	111.69	-3.62953	-127.567	151.634	6.44751	-82.6907	148.846	-1.91638	-116.051	144.594	-12.4819	-141.926	169.044	-4.09959	-73.8984	170.545	-7.30819	-104.688	171.667	-16.9097	-130.408	187.423	-18.5908	-56.4032	196.988	-21.2569	-82.1282	202.819	-30.1289	-103.783	172.586	6.30634	-23.9762	180.54	7.30927	4.22985	147.829	18.0767	-11.5897	
5	0.0416667	110.925	4.45777	-5.12405	94.0995	-2.28102	-22.8695	76.2938	-7.00641	-43.7925	64.3345	-13.7173	-64.0465	123.853	11.3404	-78.6845	118.564	5.51392	-106.552	105.544	-2.92745	-129.867	154.146	5.86646	-83.121	151.918	-0.636857	-113.061	144.305	-11.8845	-140.511	168.668	-2.79807	-77.6161	174.198	-7.34125	-101.637	170.225	-16.0698	-126.457	189.872	-17.8902	-59.7355	195.295	-20.3899	-79.0664	205.181	-30.4837	-104.986	176.454	4.4955	-26.8606	177.625	7.47872	1.29295	147.554	18.51	-15.6896	
6	0.05	112.925	4.13309	-4.82578	90.6161	0.679932	-21.643	71.4118	-3.84631	-46.5223	60.1575	-12.0535	-63.5558	124.797	10.9631	-79.8547	113.187	6.42438	-106.853	110.603	-4.86457	-129.626	151.234	7.07242	-85.209	148.845	-0.969835	-113.81	143.622	-14.9367	-142.563	172.271	-3.69234	-78.2105	174.347	-8.70263	-102.669	172.398	-18.9519	-127.215	186.176	-17.5568	-58.7495	197.377	-24.632	-82.2119	201.418	-34.846	-106.512	173.34	7.80063	-24.9165	175.267	9.13614	2.77526	145.045	19.5472	-15.7367	
7	0.0583333	112.875	10.6046	-1.86796	91.8199	7.8885	-23.5737	73.4834	4.14346	-47.2087	60.5807	-1.99044	-66.8137	124.481	14.5656	-81.8174	116.583	5.78906	-110	107.682	-4.35071	-132.683	152.991	4.39381	-88.4691	147.683	-4.18047	-116.387	142.253	-22.3581	-145.946	171.326	-7.50877	-80.4003	172.528	-14.5921	-105.228	165.33	-24.3441	-127.893	183.962	-20.6924	-59.0549	190.057	-28.2332	-81.2918	193.903	-43.2514	-105.364	174.101	8.57286	-31.0059	177.443	10.0675	2.86921	145.525	24.1214	-14.6781	
8	0.0666667	118.893	18.6581	-9.13915	95.9284	20.5834	-25.7336	79.4492	18.7781	-48.2584	63.8784	15.3202	-66.6724	129.6	14.785	-85.2296	118.431	9.62171	-110.476	110.08	-1.34538	-129.5	153.889	0.125911	-88.8615	144.602	-11.625	-118.617	133.37	-24.6848	-139.381	165.932	-12.349	-77.8088	163.638	-22.6212	-102.957	154.597	-39.1398	-128.315	178.648	-30.3063	-61.767	176.999	-41.066	-84.2709	175.191	-59.352	-100.439	179.373	0.9794	-31.0683	181.973	3.37248	-1.92676	154.052	23.139	-16.4263	
9	0.075	125.723	31.0521	-6.40369	103.675	34.2893	-28.6005	87.0589	36.7241	-50.801	72.0607	35.7496	-70.9542	135.097	14.1969	-86.506	120.119	13.0719	-107.573	105.371	0.0911837	-129.793	149.338	-3.05463	-92.0596	136.435	-16.0629	-117.013	118.966	-27.3725	-136.44	159.787	-21.3542	-77.5088	151.05	-31.387	-101.298	134.626	-46.1582	-121.564	167.239	-42.0376	-60.6155	159.598	-52.5947	-81.2429	146.907	-65.4639	-98.1555	173.783	-4.64843	-29.2003	181.271	-4.85464	-3.58135	163.629	21.4039	-17.8809	
